<?xml version="1.0" standalone="no"?>
<!DOCTYPE svg PUBLIC "-//W3C//DTD SVG 20010904//EN"
 "http://www.w3.org/TR/2001/REC-SVG-20010904/DTD/svg10.dtd">
<svg version="1.0" xmlns="http://www.w3.org/2000/svg"
 width="655.000000pt" height="655.000000pt" viewBox="0 0 655.000000 655.000000"
 preserveAspectRatio="xMidYMid meet">
<metadata>
Created by potrace 1.11, written by Peter Selinger 2001-2013
</metadata>
<g transform="translate(0.000000,655.000000) scale(0.100000,-0.100000)"
fill="#000000" stroke="none">
<path d="M3265 6260 c-49 -4 -110 -13 -135 -19 -25 -6 -95 -11 -157 -11 -91 0
-133 -6 -228 -30 -64 -16 -130 -30 -147 -30 -16 0 -64 -14 -106 -31 -113 -45
-159 -58 -241 -65 -60 -6 -79 -12 -105 -34 -42 -36 -63 -46 -116 -55 -25 -4
-61 -17 -80 -28 -38 -23 -173 -135 -178 -149 -2 -4 -8 -8 -12 -8 -5 0 -26 -17
-47 -39 -21 -21 -57 -48 -79 -60 -61 -30 -109 -92 -169 -216 -63 -132 -97
-236 -120 -368 -18 -107 -25 -366 -11 -409 7 -24 5 -28 -13 -28 -14 0 -33 19
-60 59 -52 75 -66 81 -87 33 -22 -52 -14 -197 16 -274 27 -73 95 -164 168
-225 l57 -48 0 -75 c0 -41 4 -81 9 -87 5 -8 3 -19 -5 -29 -10 -13 -10 -17 0
-24 10 -6 10 -9 1 -15 -6 -4 -10 -21 -9 -39 2 -17 0 -36 -3 -41 -4 -6 -7 -51
-8 -100 -1 -50 -3 -126 -6 -170 -4 -85 -5 -477 0 -560 3 -73 0 -79 -38 -57
-17 10 -59 29 -94 41 -56 21 -74 23 -160 18 -129 -8 -178 -26 -220 -83 -54
-73 -64 -108 -70 -241 -10 -238 51 -448 201 -687 89 -141 271 -340 382 -416
41 -29 43 -29 90 -14 63 19 62 19 74 -19 7 -21 54 -75 129 -148 128 -126 184
-173 283 -241 36 -25 78 -58 95 -73 83 -78 212 -152 469 -270 44 -20 125 -59
180 -86 55 -27 119 -54 141 -59 51 -12 67 -34 105 -149 31 -89 103 -428 115
-539 6 -57 9 -62 30 -62 18 0 24 5 24 23 0 35 -27 304 -39 382 -5 39 -13 94
-16 124 l-6 54 33 -22 c61 -41 119 -63 152 -58 68 11 193 65 274 118 l32 21 0
-26 c0 -15 -4 -34 -9 -44 -34 -64 -65 -192 -90 -377 -12 -82 -24 -160 -26
-172 -5 -21 -2 -23 35 -23 45 0 45 -1 55 119 15 171 70 393 125 501 10 20 45
61 78 91 51 47 73 59 179 96 131 47 387 180 518 271 151 105 277 216 390 343
63 69 128 138 147 153 55 44 67 58 80 93 9 24 18 33 34 33 13 0 26 -5 29 -10
11 -18 70 -10 126 17 62 31 129 95 222 215 143 183 218 329 273 528 54 193 12
430 -96 554 -95 108 -277 109 -419 2 -19 -14 -38 -26 -42 -26 -3 0 0 26 7 58
13 59 16 82 35 372 10 163 6 514 -7 601 -5 30 -1 41 25 71 20 23 31 46 31 66
0 16 9 51 21 77 17 37 21 71 24 166 1 80 -1 120 -9 122 -6 3 1 4 16 3 16 0 28
-7 28 -14 0 -8 7 -11 18 -8 15 5 17 1 14 -29 -3 -27 -1 -35 11 -35 9 0 20 -7
25 -16 14 -25 46 -2 60 43 20 67 25 177 12 247 -11 59 -10 67 5 83 10 10 29
42 43 73 23 49 25 68 25 170 0 105 -10 171 -32 225 -40 97 -63 139 -105 195
-58 77 -202 220 -222 220 -8 0 -14 3 -14 8 0 13 -108 72 -140 76 -17 2 -48 18
-68 35 -77 66 -205 158 -284 204 -72 41 -89 47 -139 47 -72 0 -92 8 -153 58
-88 73 -128 89 -271 107 -71 8 -157 22 -190 30 -34 8 -135 17 -230 19 -93 3
-210 7 -260 10 -49 2 -130 1 -180 -4z m242 -1535 c17 -12 46 -15 115 -14 51 1
113 -1 138 -4 51 -6 285 -66 372 -95 32 -11 69 -17 82 -15 13 3 27 0 30 -6 4
-6 28 -11 54 -11 26 0 81 -11 122 -24 41 -13 102 -32 135 -42 33 -9 65 -20 70
-24 6 -4 31 -10 57 -12 26 -3 67 -17 92 -32 43 -25 45 -28 51 -83 4 -32 13
-96 20 -143 21 -132 35 -261 45 -430 5 -85 12 -166 15 -180 3 -14 8 -81 11
-150 5 -122 6 -127 49 -215 92 -189 101 -231 92 -424 -6 -123 -74 -762 -97
-914 -5 -34 -15 -102 -21 -152 -15 -108 -35 -145 -161 -285 -100 -112 -190
-197 -277 -262 -68 -52 -377 -211 -481 -248 -36 -13 -69 -26 -75 -30 -5 -4
-41 -18 -80 -30 -38 -12 -74 -26 -80 -30 -17 -12 -127 -47 -185 -59 -30 -6
-120 -20 -200 -32 -176 -25 -349 -20 -440 13 -30 11 -78 28 -106 38 -103 36
-490 226 -579 284 -112 73 -134 89 -240 176 -149 122 -202 168 -278 240 -65
63 -69 68 -93 155 -33 119 -89 442 -109 630 -37 342 -41 403 -35 515 5 93 13
134 40 213 20 59 39 101 49 104 9 3 31 20 49 36 l32 31 -6 121 c-8 155 16 474
48 630 6 28 12 79 15 115 2 36 11 103 19 150 7 47 14 97 14 112 0 43 57 99
132 128 34 14 65 25 68 26 3 0 12 4 20 7 8 4 85 22 170 42 85 20 196 47 245
60 101 28 136 31 165 13 16 -10 26 -9 57 9 48 26 137 53 178 53 17 0 35 4 41
8 5 5 29 15 54 23 52 16 310 17 373 1 29 -8 52 -6 100 8 78 23 97 24 124 5z
m-2047 -440 c7 -9 10 -19 6 -22 -8 -9 -38 9 -44 25 -5 17 23 15 38 -3z m4087
-1296 c40 -15 71 -47 99 -101 36 -70 53 -165 42 -230 -5 -29 -10 -78 -12 -108
-6 -104 -117 -366 -223 -529 -101 -156 -241 -274 -322 -273 -58 1 -81 19 -81
64 0 35 3 39 48 58 65 28 145 111 171 178 26 66 27 149 3 177 -35 40 -83 66
-133 72 -49 6 -50 7 -44 32 3 14 10 55 15 91 13 111 71 209 144 246 37 18 95
11 129 -17 34 -26 43 -90 20 -130 -17 -28 -95 -89 -115 -89 -12 0 -10 -34 4
-48 25 -25 99 -5 157 44 60 50 81 124 56 195 -19 52 -45 82 -102 116 l-43 25
-76 -16 c-43 -8 -94 -26 -115 -41 -21 -14 -41 -25 -44 -25 -3 0 -2 19 1 43 4
28 15 48 31 61 13 10 30 35 39 55 28 68 94 119 194 151 37 12 125 12 157 -1z
m-4326 -12 c24 -8 69 -30 101 -50 61 -39 72 -60 84 -154 5 -44 4 -53 -9 -53
-8 0 -17 6 -20 14 -9 24 -95 58 -147 58 -59 0 -94 -20 -140 -80 -30 -39 -35
-53 -35 -101 0 -31 6 -69 13 -86 18 -41 85 -87 130 -89 33 -1 37 1 44 34 8 37
4 42 -70 102 -27 22 -29 69 -4 90 9 8 35 20 57 26 39 11 41 11 78 -26 70 -68
114 -134 122 -182 3 -25 13 -59 21 -77 8 -17 17 -45 20 -62 6 -31 6 -31 -37
-31 -64 -1 -114 -14 -148 -41 -40 -32 -45 -47 -27 -84 8 -16 31 -65 51 -107
52 -108 128 -177 187 -170 15 3 28 -29 34 -85 6 -57 5 -61 -21 -81 -36 -29
-50 -28 -111 7 -159 91 -375 413 -449 666 -64 223 -71 377 -20 481 38 77 68
94 171 94 44 0 101 -6 125 -13z m257 -770 c11 -13 29 -187 19 -187 -25 0 -61
31 -86 74 -46 83 -47 93 -9 110 42 18 63 19 76 3z m3645 -39 c21 -11 25 -18
20 -38 -7 -33 -37 -82 -64 -106 l-22 -19 7 60 c9 83 16 115 25 115 4 0 19 -6
34 -12z"/>
<path d="M2255 4040 c-44 -10 -100 -26 -125 -35 -77 -31 -261 -176 -313 -249
-28 -39 -59 -156 -43 -162 7 -3 37 6 68 20 54 24 58 24 319 22 291 -2 293 -3
504 -85 44 -17 86 -31 93 -31 18 0 42 61 42 108 0 124 -111 294 -251 385 -47
30 -64 36 -134 40 -58 4 -102 1 -160 -13z"/>
<path d="M3997 4036 c-67 -33 -188 -160 -229 -241 -50 -98 -80 -195 -76 -247
3 -36 7 -44 30 -52 21 -7 42 -3 105 23 290 120 334 129 843 167 151 11 147 9
148 58 3 64 -43 106 -198 183 -170 84 -305 118 -498 126 -69 3 -91 0 -125 -17z"/>
<path d="M4375 3376 c-116 -37 -245 -139 -326 -258 -36 -52 -70 -141 -58 -152
14 -15 46 10 64 50 11 25 30 54 41 65 l22 20 7 -38 c10 -57 35 -91 80 -113 54
-26 102 -25 155 3 48 25 75 57 84 100 5 23 3 27 -14 27 -51 0 -100 49 -100
100 0 11 16 35 35 54 20 20 32 41 29 49 -12 33 123 38 176 6 45 -28 55 -42 76
-114 9 -33 21 -64 26 -69 12 -15 28 6 39 52 7 33 5 52 -12 94 -28 73 -52 95
-127 118 -73 23 -138 25 -197 6z"/>
<path d="M2022 3338 c-90 -22 -102 -34 -116 -110 -7 -37 1 -88 13 -88 3 0 17
24 31 52 23 48 30 54 80 72 61 21 210 34 210 19 0 -6 -9 -18 -19 -27 -26 -24
-43 -106 -35 -168 9 -63 51 -122 99 -138 48 -16 141 -8 162 13 16 16 14 19
-26 53 -36 31 -41 41 -36 63 9 37 28 53 66 54 31 2 35 -2 74 -71 50 -87 95
-128 95 -86 0 26 -79 176 -124 234 -61 80 -113 115 -195 134 -90 21 -175 19
-279 -6z"/>
<path d="M4503 2879 c-66 -39 -163 -59 -229 -48 -80 13 -94 11 -94 -11 0 -29
34 -42 125 -48 122 -7 179 9 238 68 74 75 55 95 -40 39z"/>
<path d="M2050 2875 c0 -9 21 -37 48 -63 51 -52 101 -72 173 -72 62 0 189 47
189 70 0 5 -55 8 -127 7 -138 -2 -124 -6 -275 70 -5 2 -8 -3 -8 -12z"/>
<path d="M3160 2550 c0 -5 -27 -36 -60 -68 -58 -58 -165 -214 -176 -259 -7
-25 12 -56 30 -50 6 3 19 0 28 -4 10 -6 19 -5 23 1 11 18 24 10 17 -10 -4 -11
-6 -38 -4 -60 12 -123 251 -195 291 -87 8 20 9 20 24 -10 20 -39 66 -55 123
-44 102 19 169 84 171 164 1 23 2 44 2 46 1 2 10 -7 20 -20 16 -20 23 -22 38
-13 30 19 20 71 -36 185 -65 133 -99 168 -167 173 -27 2 -44 1 -38 -1 7 -2 10
-12 7 -23 -5 -18 27 -37 53 -32 7 1 15 -13 18 -33 4 -19 13 -35 20 -35 9 0 11
-14 8 -52 -8 -104 -75 -136 -290 -138 -52 -1 -70 3 -108 27 -26 15 -45 33 -43
38 2 6 7 9 10 8 4 -1 5 7 2 17 -3 11 -9 20 -13 20 -19 0 6 54 37 77 36 28 39
46 18 109 -5 17 -2 23 17 28 19 5 21 8 8 17 -12 8 -11 9 7 4 31 -9 37 10 7 24
-31 14 -44 14 -44 1z"/>
<path d="M2495 2072 c-99 -44 -160 -87 -194 -137 -47 -69 -61 -101 -61 -135 0
-27 3 -31 23 -28 15 2 31 20 53 61 17 32 42 70 57 84 l25 26 37 -74 c20 -41
50 -87 65 -104 23 -25 170 -259 170 -271 0 -2 29 -47 64 -101 70 -106 136
-179 136 -150 0 24 32 21 64 -4 46 -36 117 -68 208 -94 152 -44 347 -31 468
30 34 17 104 29 96 16 -4 -5 -2 -12 2 -15 5 -3 19 9 32 27 13 18 29 36 37 40
7 4 13 14 13 20 0 7 18 31 41 52 65 64 171 237 239 390 46 106 96 191 123 210
52 36 121 15 220 -67 52 -44 58 -40 25 22 -30 55 -90 123 -132 150 -47 28
-142 60 -198 65 -48 5 -66 -8 -29 -20 12 -3 23 -19 27 -37 5 -26 2 -35 -17
-51 -37 -30 -153 -86 -274 -132 -229 -88 -245 -96 -239 -120 5 -19 0 -24 -40
-34 -109 -27 -456 -7 -565 34 -82 30 -79 28 -47 34 l29 6 -29 15 c-16 8 -31
17 -34 21 -15 17 -145 80 -205 99 -77 25 -185 78 -185 91 0 5 18 27 40 49 22
23 38 45 35 51 -8 12 -11 12 -80 -19z m1525 -258 c0 -19 -67 -124 -78 -124 -8
0 -29 -13 -47 -29 -22 -19 -41 -27 -56 -24 -20 3 -29 -5 -52 -47 -19 -35 -33
-50 -45 -48 -9 1 -31 -7 -47 -18 -17 -12 -58 -36 -92 -53 -103 -52 -75 -54 40
-3 46 20 63 23 77 15 14 -10 23 -6 51 23 18 19 42 34 53 34 12 0 33 16 49 36
50 62 41 28 -18 -72 -32 -54 -59 -109 -60 -124 -2 -37 -10 -47 -69 -85 -28
-18 -62 -45 -75 -59 -14 -14 -32 -26 -41 -26 -9 0 -20 -4 -25 -9 -6 -5 -60
-21 -122 -35 -167 -39 -278 -22 -468 69 -77 38 -104 63 -177 169 -55 79 -59
96 -23 96 16 0 25 6 25 15 0 34 30 25 74 -21 39 -40 48 -45 61 -34 13 11 22
10 53 -7 41 -23 113 -35 133 -23 8 6 -1 11 -27 15 -21 3 -61 15 -89 26 -27 12
-61 24 -75 28 -14 3 -46 29 -70 56 -69 77 -77 80 -86 35 -4 -16 -10 -30 -14
-30 -10 0 -90 90 -90 101 0 5 -18 38 -41 75 -22 36 -38 68 -35 71 3 3 53 -17
113 -45 155 -72 376 -123 583 -136 182 -11 376 38 625 158 74 36 85 40 85 30z"/>
<path d="M2948 1979 c-26 -15 -22 -40 13 -88 35 -49 80 -71 144 -71 41 0 45 2
45 24 0 34 -39 77 -97 108 -63 34 -84 39 -105 27z"/>
<path d="M3428 1743 c7 -3 16 -2 19 1 4 3 -2 6 -13 5 -11 0 -14 -3 -6 -6z"/>
</g>
</svg>
